#!OML:ASF F:\VICON\USERDATA\INSTALL\Justin_Nancy\Justin_Nancy.ASF
:FULLY-SPECIFIED
:DEGREES
33
root 1.43462 17.3963 -25.931 -1.01867 -1.73926 -3.3991
lowerback 7.87986 -0.0146532 2.15259
upperback -0.141382 0.362466 3.94265
thorax -4.58696 0.175069 2.84985
lowerneck -14.037 -2.51976 -8.61228
upperneck 19.9363 -2.19036 3.22091
head 8.68242 -1.34981 2.26651
rclavicle 2.80783e-015 -7.95139e-015
rhumerus -31.8463 -11.885 -76.5584
rradius 27.2435
rwrist 8.57213
rhand -13.3324 3.63664
rfingers 7.12502
rthumb 12.7727 -25.9527
lclavicle 2.80783e-015 -7.95139e-015
lhumerus -31.783 3.60447 85.927
lradius 32.192
lwrist -1.21353
lhand -12.1868 30.5365
lfingers 7.12502
lthumb 13.877 60.0535
rfemur -5.67419 8.57906 30.3993
rtibia 26.999
rfoot -14.0951 -5.85279
rtoes 0.631897
lfemur -29.7509 4.71793 -17.1233
ltibia 61.4687
lfoot -7.31006 4.29878
ltoes -4.98107
34
root 1.44812 17.384 -25.6886 -1.10409 -2.29642 -3.53599
lowerback 7.87108 0.156723 2.50513
upperback -0.0707667 0.6145 3.84007
thorax -4.51195 0.290545 2.51335
lowerneck -13.9179 -2.5691 -8.49479
upperneck 19.8438 -2.30635 3.26306
head 8.63482 -1.3905 2.2477
rclavicle 3.72721e-016 6.36111e-015
rhumerus -31.0009 -11.5624 -76.9043
rradius 27.9181
rwrist 7.85367
rhand -14.7071 10.767
rfingers 7.12502
rthumb 11.4472 -18.9005
lclavicle 3.72721e-016 6.36111e-015
lhumerus -32.255 2.70015 86.2987
lradius 31.5874
lwrist -0.544084
lhand -12.8291 30.9919
lfingers 7.12502
lthumb 13.258 60.5503
rfemur -4.47827 8.72847 30.6445
rtibia 26.7566
rfoot -14.7798 -5.86862
rtoes -0.250797
lfemur -30.3848 4.92937 -17.0543
ltibia 59.6871
lfoot -8.72681 4.86947
ltoes -8.05821
35
root 1.46089 17.3687 -25.4496 -1.08965 -2.56005 -3.75519
lowerback 7.86484 0.219562 2.91206
upperback 0.00765768 0.729124 3.7986
thorax -4.42414 0.338083 2.22704
lowerneck -14.308 -2.606 -8.40772
upperneck 19.939 -2.35715 3.32936
head 8.74057 -1.39944 2.24849
rclavicle -6.13748e-015 1.43125e-014
rhumerus -30.191 -10.9367 -77.3421
rradius 28.9551
rwrist 7.03516
rhand -14.8661 12.48
rfingers 7.12502
rthumb 11.2939 -17.1959
lclavicle -6.13748e-015 1.43125e-014
lhumerus -32.492 2.24249 86.5712
lradius 30.8779
lwrist -0.787838
lhand -13.4945 30.5589
lfingers 7.12502
lthumb 12.6165 60.1579
rfemur -3.37581 8.67647 30.9673
rtibia 26.4897
rfoot -15.4407 -5.92662
rtoes -0.802454
lfemur -31.1266 4.91995 -16.8743
ltibia 57.7425
lfoot -9.29287 5.46484
ltoes -8.99477
36
root 1.47346 17.3292 -25.225 -1.03568 -2.74868 -4.25812
lowerback 8.00337 0.239527 3.48089
upperback 0.0304565 0.820981 3.93446
thorax -4.475 0.37208 2.03879
lowerneck -14.764 -2.65921 -8.52655
upperneck 20.1728 -2.37617 3.39286
head 8.90799 -1.41098 2.28698
rclavicle -4.79568e-015 1.43125e-014
rhumerus -29.3033 -10.2947 -77.6245
rradius 29.8224
rwrist 6.40856
rhand -14.9462 10.6775
rfingers 7.12502
rthumb 11.2166 -19.0027
lclavicle -4.79568e-015 1.43125e-014
lhumerus -32.8827 1.99754 86.9364
lradius 30.4695
lwrist -0.985752
lhand -14.8732 28.9076
lfingers 7.12502
lthumb 11.287 58.5839
rfemur -2.29354 8.7393 31.5971
rtibia 26.0388
rfoot -16.0116 -6.00759
rtoes 0.639305
lfemur -31.8686 4.84926 -16.3242
ltibia 55.6984
lfoot -9.6336 6.07124
ltoes -7.50651
37
root 1.48865 17.2954 -24.9992 -0.971591 -3.14455 -4.4504
lowerback 8.1483 0.344124 3.82874
upperback 0.100098 0.996787 3.91161
thorax -4.47968 0.451182 1.79839
lowerneck -15.352 -2.77378 -8.51282
upperneck 20.358 -2.4835 3.38564
head 9.08662 -1.45924 2.267
rclavicle -7.10655e-015 -2.38542e-014
rhumerus -28.1124 -9.79746 -78.007
rradius 30.4004
rwrist 5.90066
rhand -15.2378 9.14766
rfingers 7.12502
rthumb 10.9354 -20.5476
lclavicle -7.10655e-015 -2.38542e-014
lhumerus -33.0443 1.84816 87.0989
lradius 29.8681
lwrist -1.34958
lhand -15.9633 25.763
lfingers 7.12502
lthumb 10.2356 55.494
rfemur -1.22021 8.94715 31.857
rtibia 25.4682
rfoot -16.4846 -5.91256
rtoes 2.07974
lfemur -32.4255 4.73688 -16.0786
ltibia 53.4845
lfoot -9.95186 6.95068
ltoes -4.23511
38
root 1.50432 17.2766 -24.7613 -0.879388 -3.36238 -4.82835
lowerback 8.28986 0.302505 4.33796
upperback -0.0625705 1.01287 3.99046
thorax -4.72344 0.444609 1.59432
lowerneck -15.1219 -2.73672 -8.51079
upperneck 20.1519 -2.43743 3.3197
head 8.96974 -1.4432 2.24925
rclavicle -8.84592e-015 -1.19271e-014
rhumerus -27.4263 -9.06095 -78.2986
rradius 31.1721
rwrist 5.39584
rhand -15.3935 9.95553
rfingers 7.12502
rthumb 10.7852 -19.7476
lclavicle -8.84592e-015 -1.19271e-014
lhumerus -33.7128 2.50008 86.9051
lradius 29.5625
lwrist -3.35826
lhand -15.1539 24.4147
lfingers 7.12502
lthumb 11.0163 54.1057
rfemur -0.122314 8.92864 32.2811
rtibia 24.7187
rfoot -16.6215 -5.85447
rtoes 1.94001
lfemur -33.0278 4.37069 -15.5821
ltibia 51.1233
lfoot -9.90233 7.83642
ltoes -1.08267
39
root 1.51696 17.2622 -24.5238 -0.734729 -3.48245 -5.16225
lowerback 8.23609 0.247199 4.70605
upperback -0.193897 0.984054 4.10013
thorax -4.82775 0.420462 1.5078
lowerneck -14.6175 -2.59038 -8.42844
upperneck 19.7601 -2.27425 3.21179
head 8.73031 -1.36915 2.21828
rclavicle 9.11925e-015 1.98785e-014
rhumerus -26.8651 -8.25364 -78.4864
rradius 32.0588
rwrist 4.81171
rhand -15.4782 10.7761
rfingers 7.12502
rthumb 10.7035 -18.9312
lclavicle 9.11925e-015 1.98785e-014
lhumerus -34.4069 3.47535 86.5454
lradius 29.7528
lwrist -6.55666
lhand -12.2169 26.4029
lfingers 7.12502
lthumb 13.8479 55.9219
rfemur 1.04252 8.72404 32.6309
rtibia 23.7644
rfoot -16.5637 -5.84404
rtoes 0.732829
lfemur -33.5583 3.79215 -15.0687
ltibia 48.5223
lfoot -9.34297 8.71069
ltoes -0.613718
40
root 1.52749 17.2507 -24.2926 -0.580889 -3.76032 -5.39183
lowerback 8.2581 0.344928 4.92018
upperback -0.261298 1.14484 4.18125
thorax -4.90797 0.493755 1.45378
lowerneck -14.5933 -2.56397 -8.43224
upperneck 19.744 -2.23315 3.18661
head 8.71767 -1.35261 2.21525
rclavicle 3.77691e-015 -1.27222e-014
rhumerus -26.2452 -7.56204 -78.5962
rradius 32.9843
rwrist 4.23606
rhand -15.3732 10.0446
rfingers 7.12502
rthumb 10.8048 -19.6575
lclavicle 3.77691e-015 -1.27222e-014
lhumerus -34.893 4.13794 86.4038
lradius 29.7633
lwrist -8.45733
lhand -9.9404 27.4763
lfingers 7.12502
lthumb 16.041 56.8322
rfemur 2.38129 8.70822 32.9061
rtibia 22.6015
rfoot -16.6412 -5.82619
rtoes 0.287041
lfemur -33.9015 3.07135 -14.516
ltibia 45.733
lfoot -8.46307 9.53833
ltoes -2.37129
41
root 1.53738 17.2436 -24.0586 -0.337651 -4.08684 -5.57126
lowerback 8.20775 0.45283 5.09546
upperback -0.280454 1.30463 4.22832
thorax -4.89583 0.568704 1.38599
lowerneck -14.8552 -2.63916 -8.50801
upperneck 19.7303 -2.30997 3.25799
head 8.7675 -1.38464 2.24129
rclavicle 9.98893e-015 3.33958e-014
rhumerus -25.3817 -6.84171 -78.7707
rradius 33.7529
rwrist 3.63114
rhand -15.0816 9.36699
rfingers 7.12502
rthumb 11.086 -20.3202
lclavicle 9.98893e-015 3.33958e-014
lhumerus -35.1511 4.80968 86.3081
lradius 29.3591
lwrist -9.10844
lhand -9.87342 27.1735
lfingers 7.12502
lthumb 16.1055 56.5243
rfemur 3.66749 8.65176 33.089
rtibia 21.3933
rfoot -16.9457 -5.56529
rtoes 1.90783
lfemur -34.2432 2.2658 -13.933
ltibia 42.7849
lfoot -7.27475 10.2298
ltoes -3.55632
42
root 1.55329 17.2331 -23.8115 -0.161573 -4.62152 -5.61353
lowerback 8.00201 0.630362 5.26018
upperback -0.160957 1.52831 4.18349
thorax -4.64606 0.679599 1.22164
lowerneck -15.0723 -2.74846 -8.47006
upperneck 19.3563 -2.44423 3.24839
head 8.68723 -1.43767 2.21109
rclavicle 7.05686e-015 7.87187e-014
rhumerus -24.4357 -6.38057 -78.8945
rradius 34.3913
rwrist 2.79804
rhand -15.4551 10.4722
rfingers 7.12502
rthumb 10.7258 -19.234
lclavicle 7.05686e-015 7.87187e-014
lhumerus -35.3731 5.1209 86.4141
lradius 29.3244
lwrist -9.20215
lhand -10.057 29.1394
lfingers 7.12502
lthumb 15.9287 58.5043
rfemur 5.0612 8.55044 33.0582
rtibia 20.2095
rfoot -17.0286 -5.25044
rtoes 2.12899
lfemur -34.377 1.46489 -13.4243
ltibia 39.7483
lfoot -6.1833 11.0037
ltoes -4.18721
43
root 1.57173 17.2178 -23.5636 -0.0514038 -5.21667 -5.68124
lowerback 7.9051 0.858334 5.5322
upperback -0.0729038 1.83562 4.05091
thorax -4.4813 0.827265 0.897284
lowerneck -15.4384 -2.75422 -8.33897
upperneck 19.3415 -2.49814 3.46547
head 8.75118 -1.42715 2.25493
rclavicle 7.90169e-015 -3.10104e-014
rhumerus -23.689 -6.24955 -79.0412
rradius 35.0449
rwrist 2.1367
rhand -16.1144 11.6416
rfingers 7.12502
rthumb 10.0898 -18.0965
lclavicle 7.90169e-015 -3.10104e-014
lhumerus -35.6583 5.65308 86.2005
lradius 29.0697
lwrist -9.67938
lhand -10.2534 28.5443
lfingers 7.12502
lthumb 15.7396 57.9242
rfemur 6.51021 8.40163 33.03
rtibia 19.0978
rfoot -16.9492 -5.07437
rtoes 0.592527
lfemur -34.4098 0.525679 -12.738
ltibia 36.7033
lfoot -5.34545 11.848
ltoes -4.30293
44
root 1.58757 17.1963 -23.3175 0.0984953 -5.70077 -5.701
lowerback 7.90047 1.01604 5.59333
upperback -0.228005 2.0597 4.01789
thorax -4.6328 0.931421 0.802772
lowerneck -15.3576 -2.61827 -8.3245
upperneck 19.5014 -2.36043 3.63424
head 8.78296 -1.34685 2.3293
rclavicle -1.91579e-014 -3.57812e-014
rhumerus -23.3112 -5.89172 -79.0421
rradius 35.6952
rwrist 1.75036
rhand -16.104 11.909
rfingers 7.12502
rthumb 10.0999 -17.8286
lclavicle -1.91579e-014 -3.57812e-014
lhumerus -36.2533 6.42629 85.8824
lradius 28.6519
lwrist -10.5233
lhand -9.91359 27.8428
lfingers 7.12502
lthumb 16.0669 57.1966
rfemur 7.80428 8.35125 32.9845
rtibia 18.1486
rfoot -16.8782 -4.95949
rtoes -0.485339
lfemur -34.3135 -0.643904 -11.9779
ltibia 33.7072
lfoot -5.45119 12.761
ltoes -3.01113
45
root 1.60315 17.169 -23.0681 0.139108 -6.12103 -5.54914
lowerback 7.89378 1.12684 5.44677
upperback -0.315253 2.19693 3.97634
thorax -4.72049 0.999581 0.824855
lowerneck -15.339 -2.5625 -8.3802
upperneck 19.6714 -2.29323 3.7229
head 8.83478 -1.31302 2.37894
rclavicle 1.56791e-014 -2.38542e-014
rhumerus -22.8683 -5.51271 -79.0689
rradius 36.3227
rwrist 1.37655
rhand -15.7996 11.938
rfingers 7.12502
rthumb 10.3935 -17.7851
lclavicle 1.56791e-014 -2.38542e-014
lhumerus -36.7692 7.20633 85.6975
lradius 28.0535
lwrist -10.1426
lhand -11.7198 28.2986
lfingers 7.12502
lthumb 14.327 57.7843
rfemur 9.08275 8.37268 32.7933
rtibia 17.3945
rfoot -16.912 -4.97665
rtoes -1.9461
lfemur -33.9716 -1.78131 -11.4272
ltibia 30.8575
lfoot -6.27652 13.6885
ltoes -1.99163
